<svg xmlns="http://www.w3.org/2000/svg" width="483.079" height="439.385" viewBox="0 0 483.079 439.385">
  <path id="067cec9e08f0d2e047f895382453a292-img_h5_jt_b_1" d="M-158.442,1081.5a2,2,0,0,1-1.414-2.45L-45.976,654.3l-3.229-1.24a1.5,1.5,0,0,1-.951-1.218,1.5,1.5,0,0,1,.629-1.412l6.856-4.8a1.5,1.5,0,0,1,1.4-.172,1.5,1.5,0,0,1,.924,1.063l1.88,8.157a1.5,1.5,0,0,1-.478,1.47,1.5,1.5,0,0,1-1.522.268l-1.751-.673-113.773,424.339a2,2,0,0,1-1.931,1.483A2,2,0,0,1-158.442,1081.5Zm477.664-1.453L205.131,654.519l-2.139.574a1.5,1.5,0,0,1-1.807-1.938l2.723-7.915a1.5,1.5,0,0,1,2.4-.644l6.317,5.492a1.5,1.5,0,0,1-.6,2.581l-3.035.814,114.09,425.527a2,2,0,1,1-3.864,1.036ZM80.253,1078.5V652.122H77.575a1.5,1.5,0,0,1-1.245-2.339l4.679-6.939a1.5,1.5,0,0,1,2.488,0l4.679,6.939a1.5,1.5,0,0,1-1.245,2.339H84.254V1078.5a2,2,0,1,1-4,0Z" transform="translate(159.925 -642.182)" fill="#1678ff"/>
</svg>
