<svg xmlns="http://www.w3.org/2000/svg" width="713.988" height="1045.75" viewBox="0 0 713.988 1045.75">
  <path id="d0171b40a01316a7cc35b15bc3efadaa-img_h5_jt_c_1" d="M-1232,1691.143a15.912,15.912,0,0,1-6.229-1.258,15.951,15.951,0,0,1-5.085-3.428,15.933,15.933,0,0,1-3.428-5.086,15.893,15.893,0,0,1-1.258-6.228V970.913a16.042,16.042,0,0,1,2-7.74l131.388-309.74-2.415-1.283a1.5,1.5,0,0,1-.8-1.324,1.5,1.5,0,0,1,.8-1.325l7.385-3.933a1.5,1.5,0,0,1,1.409,0,1.5,1.5,0,0,1,.787,1.167l.877,8.321a1.5,1.5,0,0,1-.652,1.4,1.5,1.5,0,0,1-1.543.081l-2.3-1.223-131.337,309.621-.055.1a12.039,12.039,0,0,0-1.543,5.881v704.228a11.923,11.923,0,0,0,3.515,8.485,11.925,11.925,0,0,0,8.486,3.514h53.03a2,2,0,0,1,2,2,2,2,0,0,1-2,2Zm397.958-2a2,2,0,0,1-2-2,2,2,0,0,1,2-2h52.031a12.014,12.014,0,0,0,12-12V1070c-.859-7.554-61.91-386.246-66.3-413.481l-2.315.325a1.5,1.5,0,0,1-1.423-.6,1.5,1.5,0,0,1-.134-1.539l3.667-7.523a1.5,1.5,0,0,1,1.139-.828,1.5,1.5,0,0,1,1.323.482l5.6,6.22a1.5,1.5,0,0,1,.294,1.517,1.5,1.5,0,0,1-1.2.972l-2.989.42c2.171,13.466,17.693,109.742,33.029,205.121,9.663,60.1,17.363,108.082,22.884,142.623,3.279,20.509,5.816,36.445,7.542,47.365,2.884,18.255,2.884,18.568,2.884,18.843V1673.14a15.9,15.9,0,0,1-1.258,6.229,15.937,15.937,0,0,1-3.428,5.085,15.951,15.951,0,0,1-5.085,3.428,15.892,15.892,0,0,1-6.228,1.258Zm238-3a2,2,0,0,1-2-2,2,2,0,0,1,2-2h46.03a12.014,12.014,0,0,0,12-12V970.911a12.034,12.034,0,0,0-1.544-5.879l-.055-.1-.043-.1L-670.917,655.39l-2.079,1.2a1.5,1.5,0,0,1-1.545-.027,1.5,1.5,0,0,1-.7-1.377l.583-8.348a1.5,1.5,0,0,1,.746-1.194,1.5,1.5,0,0,1,1.408-.049l7.521,3.67a1.5,1.5,0,0,1,.841,1.3,1.5,1.5,0,0,1-.749,1.352l-2.535,1.464L-536.016,963.17a16.044,16.044,0,0,1,2,7.739V1670.14a15.9,15.9,0,0,1-1.258,6.229,15.953,15.953,0,0,1-3.428,5.085,15.954,15.954,0,0,1-5.085,3.428,15.914,15.914,0,0,1-6.229,1.258Zm-536.206-31.878V1282.5a2.012,2.012,0,0,1,.037-.386h-2.966a1.5,1.5,0,0,1-1.325-.8,1.5,1.5,0,0,1,.081-1.544l4.674-6.931a1.5,1.5,0,0,1,1.244-.661,1.5,1.5,0,0,1,1.244.661l4.674,6.931a1.5,1.5,0,0,1,.081,1.544,1.5,1.5,0,0,1-1.325.8h-2.456a2,2,0,0,1,.037.386v371.762a2,2,0,0,1-2,2A2,2,0,0,1-1132.25,1654.262Zm488-6.013V1282.114h-2.93a1.5,1.5,0,0,1-1.325-.8,1.5,1.5,0,0,1,.081-1.544l4.674-6.931a1.5,1.5,0,0,1,1.244-.661,1.5,1.5,0,0,1,1.244.661l4.674,6.931a1.5,1.5,0,0,1,.081,1.544,1.5,1.5,0,0,1-1.325.8h-2.418v366.135a2.006,2.006,0,0,1-2,2.012A2.006,2.006,0,0,1-644.25,1648.249Zm-251.676-2.325-14.283-41.449c-24.57-71.3-99.841-292-109.778-321.143l-2.585.891a1.5,1.5,0,0,1-1.513-.321,1.5,1.5,0,0,1-.427-1.486l2.162-8.08a1.5,1.5,0,0,1,.961-1.031,1.5,1.5,0,0,1,1.392.221l6.681,5.033a1.5,1.5,0,0,1,.58,1.434,1.5,1.5,0,0,1-.994,1.184l-2.474.853c9.913,29.07,85.2,249.837,109.778,321.144l14.284,41.448a2,2,0,0,1-1.24,2.544,2,2,0,0,1-.652.11A2,2,0,0,1-895.926,1645.925Z" transform="translate(1248.003 -645.393)" fill="#04be02"/>
</svg>
