<svg id="e11d98aa4388e95a9732ec9bf39e3046-login_icon_dl" xmlns="http://www.w3.org/2000/svg" width="48" height="48" viewBox="0 0 48 48">
  <rect id="e11d98aa4388e95a9732ec9bf39e3046-&#x77e9;&#x5f62;_2" data-name="&#x77e9;&#x5f62; 2" width="48" height="48" fill="#1678ff" opacity="0"/>
  <path id="e11d98aa4388e95a9732ec9bf39e3046-&#x8def;&#x5f84;_15110" data-name="&#x8def;&#x5f84; 15110" d="M25.409,41.914V2.083A2.081,2.081,0,0,1,27.483,0a1.97,1.97,0,0,1,.692.12l12.3,4.321a2.087,2.087,0,0,1,1.39,1.966V37.593a2.082,2.082,0,0,1-1.39,1.962l-12.3,4.325a2.071,2.071,0,0,1-2.766-1.966ZM8.369,40.8a1.735,1.735,0,0,1-1.732-1.733V26.628H10.1v10.7H20.427a1.783,1.783,0,0,1,1.8,1.686A1.732,1.732,0,0,1,20.5,40.8Zm5.145-14.742V23.589H1.73A1.729,1.729,0,0,1,0,21.8a1.779,1.779,0,0,1,1.8-1.682h11.71V17.648a1.159,1.159,0,0,1,1.853-.929l5.619,4.2a1.162,1.162,0,0,1,0,1.861l-5.619,4.208a1.144,1.144,0,0,1-.687.23A1.161,1.161,0,0,1,13.514,26.061Zm-6.878-8.98V4.643A1.736,1.736,0,0,1,8.369,2.906H20.5A1.733,1.733,0,0,1,22.23,4.7a1.779,1.779,0,0,1-1.8,1.678H10.1v10.7Z" transform="translate(3 2)" fill="#1678ff" stroke="rgba(0,0,0,0)" stroke-width="1"/>
</svg>
