<svg xmlns="http://www.w3.org/2000/svg" width="20.413" height="12.425" viewBox="0 0 20.413 12.425">
  <path id="ed7365c83b3eead899ac44e8c5ca1801-btn_zcl_arrow" d="M5666.2,158.425a1.2,1.2,0,1,1,0-2.4h8a1.2,1.2,0,1,1,0,2.4Zm12.322-.522a1.2,1.2,0,0,1,0-1.7l2.793-2.794H5666.2a1.2,1.2,0,1,1,0-2.4h15.115l-2.793-2.794a1.2,1.2,0,1,1,1.7-1.7l4.841,4.841a1.2,1.2,0,0,1,0,1.7l-4.841,4.841a1.2,1.2,0,0,1-1.7,0Zm-12.322-9.5a1.2,1.2,0,1,1,0-2.4h8a1.2,1.2,0,1,1,0,2.4Z" transform="translate(-5665 -146)" fill="#1678ff"/>
</svg>
