<svg xmlns="http://www.w3.org/2000/svg" width="23.001" height="24.3" viewBox="0 0 23.001 24.3">
  <path id="b0013804d79c905cd78bc6d249c6bd44-comm_icon_copy3" d="M1.293,23.294A1.294,1.294,0,0,1,0,22V5.175A1.292,1.292,0,0,1,1.293,3.882h15.53a1.292,1.292,0,0,1,1.293,1.293V22a1.293,1.293,0,0,1-1.293,1.3Zm.647-1.941H16.174V5.825H1.94ZM20.056,19.09V1.942H7.441A.972.972,0,0,1,7.441,0H21.029A.978.978,0,0,1,22,.978V19.089a.972.972,0,1,1-1.942,0Z" transform="translate(0.5 0.5)" fill="#005dfe" stroke="rgba(0,0,0,0)" stroke-miterlimit="10" stroke-width="1"/>
</svg>
