<svg xmlns="http://www.w3.org/2000/svg" width="56" height="56" viewBox="0 0 56 56">
  <g id="e2c7d37cb329b166c54d60fcb3ca7d19-comm_icon_cz_kf" transform="translate(-338.563 -2482.325)">
    <path id="e2c7d37cb329b166c54d60fcb3ca7d19-&#x8054;&#x5408;_620" data-name="&#x8054;&#x5408; 620" d="M14912.431,5249a6.723,6.723,0,0,1,13.184-1.857h7.193l3.173-9.152a5.26,5.26,0,0,1-3.51-4.966v-7.362a5.282,5.282,0,0,1,4.418-5.2,15.948,15.948,0,0,0-15.858-15.427h-.476a15.951,15.951,0,0,0-15.858,15.427,5.28,5.28,0,0,1,4.422,5.2v7.362a5.283,5.283,0,0,1-5.27,5.266h-2.021a5.278,5.278,0,0,1-5.267-5.266v-7.362a5.273,5.273,0,0,1,4.423-5.2,18.644,18.644,0,0,1,1.563-7.366,19.094,19.094,0,0,1,4.257-6.14,19.708,19.708,0,0,1,6.294-4.122,20.388,20.388,0,0,1,15.39,0,19.724,19.724,0,0,1,6.293,4.126,19.022,19.022,0,0,1,4.258,6.136,18.564,18.564,0,0,1,1.563,7.366,5.293,5.293,0,0,1,4.426,5.2v7.362a5.281,5.281,0,0,1-5.225,5.266l-3.919,11.316a1.859,1.859,0,0,1-1.756,1.249h-8.51a6.724,6.724,0,0,1-13.187-1.856Zm4.591-2.127a2.965,2.965,0,0,0-.878,2.127,3.012,3.012,0,1,0,3.008-3.012A2.984,2.984,0,0,0,14917.021,5246.87Zm19.162-21.21v7.362a1.557,1.557,0,0,0,1.557,1.557h2.021a1.557,1.557,0,0,0,1.553-1.557v-7.362a1.556,1.556,0,0,0-1.553-1.557h-2.021A1.557,1.557,0,0,0,14936.184,5225.66Zm-35.909,0v7.362a1.557,1.557,0,0,0,1.553,1.557h2.021a1.558,1.558,0,0,0,1.557-1.557v-7.362a1.558,1.558,0,0,0-1.557-1.557h-2.021A1.556,1.556,0,0,0,14900.274,5225.66Z" transform="translate(-14554.227 -2718.238)" fill="#1678ff"/>
    <rect id="e2c7d37cb329b166c54d60fcb3ca7d19-&#x77e9;&#x5f62;_3312" data-name="&#x77e9;&#x5f62; 3312" width="56" height="56" transform="translate(338.563 2482.325)" fill="#999" opacity="0"/>
  </g>
</svg>
