<svg xmlns="http://www.w3.org/2000/svg" xmlns:xlink="http://www.w3.org/1999/xlink" width="56" height="56" viewBox="0 0 56 56">
  <defs>
    <clipPath id="3b8409b5fb390f72ff65226bf194a6f7-clip-path">
      <rect id="3b8409b5fb390f72ff65226bf194a6f7-&#x77e9;&#x5f62;_3360" data-name="&#x77e9;&#x5f62; 3360" width="56" height="56" transform="translate(-9003.117 7343.883)" fill="#fff" stroke="#707070" stroke-width="1"/>
    </clipPath>
  </defs>
  <g id="3b8409b5fb390f72ff65226bf194a6f7-comm_icon_cz_jl" transform="translate(9003.117 -7343.883)" clip-path="url(#3b8409b5fb390f72ff65226bf194a6f7-clip-path)">
    <path id="3b8409b5fb390f72ff65226bf194a6f7-&#x8054;&#x5408;_619" data-name="&#x8054;&#x5408; 619" d="M5477.7,10114.192a16.013,16.013,0,0,1,6.113-30.81h.013a16.014,16.014,0,1,1-6.125,30.81Zm1.391-26.22a12.361,12.361,0,1,0,4.719-.938A12.395,12.395,0,0,0,5479.1,10087.973Zm-23.658,22.719a6.564,6.564,0,0,1-6.555-6.56v-34.693a6.561,6.561,0,0,1,6.555-6.555h26.811a6.56,6.56,0,0,1,6.552,6.555V10076h-3.65v-6.558a2.905,2.905,0,0,0-2.9-2.9h-26.813a2.908,2.908,0,0,0-2.9,2.9v34.581l0,0v.106a2.9,2.9,0,0,0,2.9,2.9h8.134v3.655Zm33.487-3.681-6.417-6.434a1.709,1.709,0,0,1-.452-.817v-.01a.6.6,0,0,1-.03-.155l0-.018v-.059a21.265,21.265,0,0,1-.028-2.3v-5.7a1.825,1.825,0,1,1,3.651,0v7.218l5.773,5.783a1.764,1.764,0,0,1-.751,3.033,1.812,1.812,0,0,1-.421.051A1.779,1.779,0,0,1,5488.925,10107.011Zm-30.334-19.975a1.827,1.827,0,0,1,0-3.653h6.311a1.827,1.827,0,0,1,0,3.653Zm0-9.456a1.825,1.825,0,0,1,0-3.65h20.5a1.825,1.825,0,1,1,0,3.65Z" transform="translate(-14449.841 -2716.841)" fill="#1678ff"/>
  </g>
</svg>
