<svg xmlns="http://www.w3.org/2000/svg" width="40" height="27.611" viewBox="0 0 40 27.611">
  <g id="b4d8e85858ea8aff828b596ba2e1d505-img_tx_tjzh" transform="translate(-1939.301 287.188)">
    <path id="b4d8e85858ea8aff828b596ba2e1d505-Path_520" data-name="Path 520" d="M1977.03-283.677a3.486,3.486,0,0,0-3.461-3.51h-30.807a3.486,3.486,0,0,0-3.461,3.51v3.017h37.729Z" fill="#1678ff" fill-rule="evenodd"/>
    <path id="b4d8e85858ea8aff828b596ba2e1d505-Path_521" data-name="Path 521" d="M1958.38-262.572a11.712,11.712,0,0,1,5.108-9.678H1939.3v15.084a3.486,3.486,0,0,0,3.461,3.511H1962.5A11.694,11.694,0,0,1,1958.38-262.572Z" transform="translate(0 -6.198)" fill="#1678ff" fill-rule="evenodd"/>
    <path id="b4d8e85858ea8aff828b596ba2e1d505-Path_522" data-name="Path 522" d="M1985.436-271.42a9.192,9.192,0,0,0-9.192,9.193,9.192,9.192,0,0,0,9.192,9.192,9.193,9.193,0,0,0,9.193-9.192A9.193,9.193,0,0,0,1985.436-271.42Zm5.089,9.186a1.025,1.025,0,0,1-1.017,1.032h-3.061v3.1a1.024,1.024,0,0,1-1.017,1.032h0a1.024,1.024,0,0,1-1.017-1.032v-3.1h-3.042a1.024,1.024,0,0,1-1.017-1.032v0a1.024,1.024,0,0,1,1.017-1.031h3.042v-3.086a1.024,1.024,0,0,1,1.017-1.031h0a1.024,1.024,0,0,1,1.017,1.031v3.086h3.061a1.024,1.024,0,0,1,1.017,1.031Z" transform="translate(-15.328 -6.542)" fill="#1678ff" fill-rule="evenodd"/>
  </g>
</svg>
