<svg xmlns="http://www.w3.org/2000/svg" width="30" height="29.987" viewBox="0 0 30 29.987">
    <path d="M11.726 28.609q-2.758-2.755-5.518-5.518c-.027-.028-.059-.05-.087-.075l.014-.041h.861a4.261 4.261 0 0 0 3.041-1.263c1.494-1.479 2.974-2.97 4.46-4.455a.861.861 0 0 1 1.365 0l4.4 4.4a4.245 4.245 0 0 0 2.811 1.283c.259.016.518 0 .776 0 0 .016.007.034.011.05-.031.034-.059.071-.092.1l-5.578 5.575a4.36 4.36 0 0 1-2.781 1.29q-.226.019-.451.02a4.435 4.435 0 0 1-3.231-1.372zm-7.239-7.233c-1.04-1.052-2.09-2.092-3.136-3.138a4.563 4.563 0 0 1-.034-6.452c1.1-1.122 2.224-2.227 3.334-3.341a.259.259 0 0 1 .29-.1.96.96 0 0 0 .282.011h1.7a3.049 3.049 0 0 1 2.23.928c1.476 1.472 2.963 2.935 4.419 4.426a2.231 2.231 0 0 0 3.214 0c1.461-1.488 2.946-2.952 4.42-4.428a3.114 3.114 0 0 1 2.23-.923h.586c.311 0 .623.007.932-.011a.592.592 0 0 1 .507.216c1.047 1.06 2.1 2.11 3.157 3.163a4.464 4.464 0 0 1 1.348 2.856c.011.132.025.265.029.344a4.569 4.569 0 0 1-1.33 3.273q-1.622 1.63-3.254 3.256a.476.476 0 0 1-.405.171c-.332-.02-.666-.018-1-.014h-.519a3.184 3.184 0 0 1-2.32-.959c-1.446-1.456-2.9-2.9-4.347-4.355a2.23 2.23 0 0 0-1.666-.713 2.121 2.121 0 0 0-1.528.636q-2.217 2.219-4.435 4.435a3.115 3.115 0 0 1-2.33.964c-.591-.007-1.18-.029-1.766.011h-.061a.708.708 0 0 1-.545-.256zm10.038-8.627c-1.491-1.488-2.978-2.984-4.472-4.467a4.263 4.263 0 0 0-3.071-1.274h-.845l-.02-.048c.061-.055.127-.105.186-.164q2.742-2.741 5.487-5.481a4.365 4.365 0 0 1 2.792-1.3 4.44 4.44 0 0 1 3.659 1.338c1.845 1.835 3.678 3.679 5.521 5.518.034.034.075.064.114.1l-.015.05h-.437a4.322 4.322 0 0 0-2.505.766 4.489 4.489 0 0 0-.641.531q-2.224 2.206-4.439 4.431a.837.837 0 0 1-1.312 0z" transform="translate(.002 .006)" style="fill:#00bdae"/>
</svg>
