<svg id="896cac671abb2a024f796aa040d5655d-comm_icon_xxzx_yd" xmlns="http://www.w3.org/2000/svg" width="56" height="56" viewBox="0 0 56 56">
  <rect id="896cac671abb2a024f796aa040d5655d-&#x77e9;&#x5f62;_3359" data-name="&#x77e9;&#x5f62; 3359" width="56" height="56" fill="#fff" opacity="0"/>
  <path id="896cac671abb2a024f796aa040d5655d-&#x8def;&#x5f84;_15119" data-name="&#x8def;&#x5f84; 15119" d="M523.5,835a5,5,0,0,1-4.9-6l3.8-20.036A5,5,0,0,1,523,799h11.5V788a7,7,0,1,1,14,0v11H560a5,5,0,0,1,.226,9.995l3.8,20a5,5,0,0,1-4.9,6Zm35.621-4a1,1,0,0,0,.979-1.2l-.007-.035L556.155,809H526.468l-3.946,20.8a1,1,0,0,0,.979,1.2h3.867l2.473-14.34a2,2,0,0,1,3.942.68L531.427,831ZM522,804a1,1,0,0,0,1,1h37a1,1,0,0,0,0-2H523A1,1,0,0,0,522,804Zm22.5-5V788a3,3,0,1,0-6,0v11Z" transform="translate(-513 -780)" fill="#1678ff"/>
</svg>
