<svg id="6352396d63da03ac8ae4c1dd4bc1154b-comm_icon_xxzx_sc" xmlns="http://www.w3.org/2000/svg" width="56" height="56" viewBox="0 0 56 56">
  <rect id="6352396d63da03ac8ae4c1dd4bc1154b-&#x77e9;&#x5f62;_3359" data-name="&#x77e9;&#x5f62; 3359" width="56" height="56" fill="#fff" opacity="0"/>
  <path id="6352396d63da03ac8ae4c1dd4bc1154b-&#x8def;&#x5f84;_15118" data-name="&#x8def;&#x5f84; 15118" d="M630.5,824a7.008,7.008,0,0,1-7-7V793a2,2,0,1,1,4,0v24a3,3,0,0,0,3,3h24a3,3,0,0,0,3-3V793a2,2,0,1,1,4,0v24a7.008,7.008,0,0,1-7,7ZM646,814V793a2,2,0,1,1,4,0v21a2,2,0,1,1-4,0Zm-12,0V793a2,2,0,0,1,4,0v21a2,2,0,1,1-4,0Zm-14-27a2,2,0,0,1,0-4h9.5v-3a5.006,5.006,0,0,1,5-5h16a5.005,5.005,0,0,1,5,5v3H664a2,2,0,0,1,0,4Zm31.5-4v-3a1,1,0,0,0-1-1h-16a1,1,0,0,0-1,1v3Z" transform="translate(-614 -771)" fill="#1678ff"/>
</svg>
