<svg xmlns="http://www.w3.org/2000/svg" width="11.996" height="12.008" viewBox="0 0 11.996 12.008">
  <path id="7b5aba40a3ed19db01202235ccc10e36-comm_icon_jzgd" d="M18645,17402a.534.534,0,0,1-.389-.141l-5.473-5.65a.5.5,0,0,1,0-.691.453.453,0,0,1,.67,0l5.191,5.34,5.182-5.34a.451.451,0,0,1,.668,0,.485.485,0,0,1,0,.691l-5.467,5.65a.549.549,0,0,1-.354.141Zm0-5.373a.479.479,0,0,1-.389-.15l-5.473-5.641a.5.5,0,0,1,0-.7.463.463,0,0,1,.67,0l5.191,5.34,5.182-5.34a.46.46,0,0,1,.668,0,.492.492,0,0,1,0,.7l-5.467,5.641a.489.489,0,0,1-.342.152Z" transform="translate(-18639 -17389.996)" fill="#1678ff"/>
</svg>
