<svg xmlns="http://www.w3.org/2000/svg" width="12.389" height="19.945" viewBox="0 0 12.389 19.945">
  <path id="0d7322b3273dc8daf00c7dc9c60b11f5-comm_icon_fhdb" d="M37.695,23h12c.13,0,.195.13.195.26s-.065.547-.195.547h-12c-.13,0-.195-.417-.195-.547S37.565,23,37.695,23Zm6,2.924A8.169,8.169,0,0,1,47.982,33.2a2.923,2.923,0,0,1,1.429,3.118,3.05,3.05,0,0,1-2.339,2.664c-.65-.065-.455-.52-.455-.52l-.195-.845s-.91,1.364-1.169,1.364H42.005c-.26,0-1.169-1.364-1.169-1.364l-.195.845s.13.455-.455.52a3.05,3.05,0,0,1-2.339-2.664A3.188,3.188,0,0,1,39.406,33.2,8.408,8.408,0,0,1,43.694,25.924ZM41.94,31.316a1.755,1.755,0,1,0,3.508,0,1.755,1.755,0,1,0-3.508,0Zm.455,10.72a.375.375,0,0,0,.39-.39V39.827a.39.39,0,1,0-.78,0v1.819A.374.374,0,0,0,42.4,42.036Zm1.364.91a.419.419,0,0,0,.39-.39V39.892a.39.39,0,0,0-.78,0v2.664A.419.419,0,0,0,43.759,42.945Zm1.234-1.364a.374.374,0,0,0,.39-.39v-1.3a.39.39,0,0,0-.78,0v1.3A.374.374,0,0,0,44.994,41.581Z" transform="translate(-37.5 -23)" fill="#1678ff" fill-rule="evenodd"/>
</svg>
