<svg xmlns="http://www.w3.org/2000/svg" width="35.999" height="36" viewBox="0 0 35.999 36">
  <g id="c17fd2cda8190111948021ddf9836d12-comm_icon_clock" transform="translate(0.499 0.501)">
    <path id="c17fd2cda8190111948021ddf9836d12-Union_159" data-name="Union 159" d="M-5182.98-6307.534a18.078,18.078,0,0,1-5.724-3.871,18.109,18.109,0,0,1-3.873-5.724,17.7,17.7,0,0,1-1.423-6.981,17.881,17.881,0,0,1,1.405-6.978,17.957,17.957,0,0,1,3.844-5.724,17.858,17.858,0,0,1,12.749-5.3,17.861,17.861,0,0,1,12.751,5.3,17.957,17.957,0,0,1,3.844,5.724,17.882,17.882,0,0,1,1.406,6.978,17.739,17.739,0,0,1-1.423,6.981,18.108,18.108,0,0,1-3.872,5.724,18.089,18.089,0,0,1-5.724,3.871,17.711,17.711,0,0,1-6.981,1.424A17.706,17.706,0,0,1-5182.98-6307.534Zm-8.2-16.455A15.193,15.193,0,0,0-5176-6308.811a15.193,15.193,0,0,0,15.177-15.178A15.194,15.194,0,0,0-5176-6339.165,15.194,15.194,0,0,0-5191.176-6323.988Zm15.054,2.93a1.336,1.336,0,0,1-1.35-1.35v-11.667a1.337,1.337,0,0,1,1.35-1.352,1.337,1.337,0,0,1,1.353,1.352v10.2h10.072a1.368,1.368,0,0,1,1.35,1.471,1.334,1.334,0,0,1-1.35,1.35Z" transform="translate(5193.5 6341.609)" fill="#999"/>
  </g>
</svg>
