<svg xmlns="http://www.w3.org/2000/svg" width="26" height="26" viewBox="0 0 26 26">
  <path id="97f163f41a61d76a1986901d6de4948b-icon_sy_zc_yy" d="M18073,22626a13,13,0,1,1,13-13,13,13,0,0,1-13,13Zm0-2.5c.342,0,1.182-.641,1.971-2.355a19.318,19.318,0,0,0,1.5-6.895h-6.937a19.276,19.276,0,0,0,1.5,6.895c.789,1.715,1.629,2.355,1.975,2.355Zm3.984-.785a10.541,10.541,0,0,0,6.441-8.465h-4.457A20.933,20.933,0,0,1,18076.986,22622.717Zm-7.973,0a20.922,20.922,0,0,1-1.986-8.463h-4.455A10.538,10.538,0,0,0,18069.014,22622.715Zm14.414-10.967a10.537,10.537,0,0,0-6.441-8.465,20.9,20.9,0,0,1,1.984,8.465Zm-6.959,0a19.3,19.3,0,0,0-1.5-6.895c-.789-1.715-1.629-2.355-1.971-2.355s-1.186.641-1.975,2.355a19.294,19.294,0,0,0-1.5,6.895Zm-9.441,0a20.922,20.922,0,0,1,1.986-8.463,10.53,10.53,0,0,0-6.441,8.463Z" transform="translate(-18060 -22600)" fill="#55657e"/>
</svg>
