<svg xmlns="http://www.w3.org/2000/svg" xmlns:xlink="http://www.w3.org/1999/xlink" width="48" height="48" viewBox="0 0 48 48">
  <defs>
    <clipPath id="276735831f8b24bdeb913934cce5d03c-clip-path">
      <path id="276735831f8b24bdeb913934cce5d03c-Union_151" data-name="Union 151" d="M-137-2471v-4h4v4Zm-44,0v-4h4v4Zm44-44v-4h4v4Zm-44,0v-4h4v4Z" transform="translate(181 2519)" fill="#fff"/>
    </clipPath>
  </defs>
  <g id="276735831f8b24bdeb913934cce5d03c-input_icon_line" transform="translate(-2621 -2123)">
    <g id="276735831f8b24bdeb913934cce5d03c-&#x5e95;&#x5c42;" transform="translate(2621 2123)">
      <g id="276735831f8b24bdeb913934cce5d03c-Mask_Group_1" data-name="Mask Group 1" opacity="0" clip-path="url(#276735831f8b24bdeb913934cce5d03c-clip-path)">
        <path id="276735831f8b24bdeb913934cce5d03c-&#x5e95;&#x5c42;-2" data-name="&#x5e95;&#x5c42;" d="M2,1A1,1,0,0,0,1,2V46a1,1,0,0,0,1,1H46a1,1,0,0,0,1-1V2a1,1,0,0,0-1-1H2M2,0H46a2,2,0,0,1,2,2V46a2,2,0,0,1-2,2H2a2,2,0,0,1-2-2V2A2,2,0,0,1,2,0Z" fill="#fff"/>
      </g>
    </g>
    <g id="276735831f8b24bdeb913934cce5d03c-input_icon_line-2" data-name="input_icon_line" transform="translate(2623 2125)">
      <circle id="276735831f8b24bdeb913934cce5d03c-Ellipse_167" data-name="Ellipse 167" cx="22" cy="22" r="22" fill="#06c755"/>
      <g id="276735831f8b24bdeb913934cce5d03c-Group_3441" data-name="Group 3441" transform="translate(5.69 7.588)">
        <path id="276735831f8b24bdeb913934cce5d03c-Path_6376" data-name="Path 6376" d="M104.188,92.016a8.25,8.25,0,0,1-.126.976A10.74,10.74,0,0,1,102.83,96.5c-.292.52-1.7,2.5-2.13,3.02a38.032,38.032,0,0,1-13.024,9.388.878.878,0,0,1-1.256-.878l.336-3.024a.878.878,0,0,0-.776-.968,18.7,18.7,0,0,1-6.374-1.818A12.5,12.5,0,0,1,72,91.346c0-7.07,7.2-12.8,16.094-12.8A18.368,18.368,0,0,1,99.506,82.33a11.716,11.716,0,0,1,4.656,8.422,11.882,11.882,0,0,1,.026,1.256Zm0,0" transform="translate(-72 -78.544)" fill="#fff"/>
        <g id="276735831f8b24bdeb913934cce5d03c-Group_3442" data-name="Group 3442" transform="translate(5.45 9.178)">
          <path id="276735831f8b24bdeb913934cce5d03c-Path_6377" data-name="Path 6377" d="M128.6,153.315a.8.8,0,0,1,.242.584.822.822,0,0,1-.822.824h-3.292a.828.828,0,0,1-.824-.826v-6.216a.812.812,0,0,1,.242-.584.822.822,0,0,1,1.4.584v5.4h2.47a.8.8,0,0,1,.58.24h0Zm0,0" transform="translate(-123.904 -146.859)" fill="#00c200"/>
          <path id="276735831f8b24bdeb913934cce5d03c-Path_6378" data-name="Path 6378" d="M168.216,147.544v6.574a.646.646,0,0,1-.644.644H167.2a.644.644,0,0,1-.644-.644v-6.574a.644.644,0,0,1,.644-.644h.36a.648.648,0,0,1,.654.644Zm0,0" transform="translate(-160.842 -146.898)" fill="#00c200"/>
          <path id="276735831f8b24bdeb913934cce5d03c-Path_6379" data-name="Path 6379" d="M194.458,147.722v6.18a.856.856,0,0,1-.828.858.83.83,0,0,1-.56-.228c-.028-.022-1.134-1.464-2.074-2.674-.7-.9-1.31-1.694-1.31-1.694v3.772a.824.824,0,0,1-1.646,0v-6.18a.85.85,0,0,1,.8-.858.832.832,0,0,1,.646.292c.034.042,1.736,2.254,2.692,3.512.38.49.644.836.644.836v-3.8a.822.822,0,1,1,1.644-.014Zm0,0" transform="translate(-179.44 -146.898)" fill="#00c200"/>
          <path id="276735831f8b24bdeb913934cce5d03c-Path_6380" data-name="Path 6380" d="M246.756,151.653v1.464h2.466a.826.826,0,1,1,0,1.648h-3.3a.824.824,0,0,1-.822-.824v-6.216a.824.824,0,0,1,.822-.822h3.292a.826.826,0,1,1,0,1.646h-2.458v1.464h2.466a.822.822,0,0,1,0,1.644h-2.466Zm0,0" transform="translate(-228.848 -146.896)" fill="#00c200"/>
        </g>
      </g>
    </g>
  </g>
</svg>
