<svg xmlns="http://www.w3.org/2000/svg" xmlns:xlink="http://www.w3.org/1999/xlink" width="48" height="48.001" viewBox="0 0 48 48.001">
  <defs>
    <clipPath id="e63488119c37f6525964ba95be14d119-clip-path">
      <path id="e63488119c37f6525964ba95be14d119-Union_151" data-name="Union 151" d="M-137-2471v-4h4v4Zm-44,0v-4h4v4Zm44-44v-4h4v4Zm-44,0v-4h4v4Z" transform="translate(181 2519)" fill="#fff"/>
    </clipPath>
  </defs>
  <g id="e63488119c37f6525964ba95be14d119-input_icon_zh" transform="translate(-2322 -2123)">
    <g id="e63488119c37f6525964ba95be14d119-&#x5e95;&#x5c42;" transform="translate(2322 2123)">
      <g id="e63488119c37f6525964ba95be14d119-Mask_Group_1" data-name="Mask Group 1" transform="translate(0)" opacity="0" clip-path="url(#e63488119c37f6525964ba95be14d119-clip-path)">
        <path id="e63488119c37f6525964ba95be14d119-&#x5e95;&#x5c42;-2" data-name="&#x5e95;&#x5c42;" d="M2,1A1,1,0,0,0,1,2V46a1,1,0,0,0,1,1H46a1,1,0,0,0,1-1V2a1,1,0,0,0-1-1H2M2,0H46a2,2,0,0,1,2,2V46a2,2,0,0,1-2,2H2a2,2,0,0,1-2-2V2A2,2,0,0,1,2,0Z" transform="translate(0 0)" fill="#fff"/>
      </g>
    </g>
    <path id="e63488119c37f6525964ba95be14d119-icon_dl_zh" d="M4.328,46.837A3.348,3.348,0,0,1,1,43.473v-.147A22.079,22.079,0,0,1,12.009,25.609a17.332,17.332,0,0,0,23.875,0A22.072,22.072,0,0,1,46.87,43.326,3.344,3.344,0,0,1,43.7,46.833h-.149Zm7.185-33.4A12.419,12.419,0,1,1,24.054,25.675h-.119A12.327,12.327,0,0,1,11.513,13.442Z" transform="translate(2322 2123.163)" fill="#999"/>
  </g>
</svg>
