<svg xmlns="http://www.w3.org/2000/svg" xmlns:xlink="http://www.w3.org/1999/xlink" width="48" height="48.001" viewBox="0 0 48 48.001">
  <defs>
    <clipPath id="8a6f99e785c5ef66bcb9ddec21850463-clip-path">
      <path id="8a6f99e785c5ef66bcb9ddec21850463-Union_151" data-name="Union 151" d="M-137-2471v-4h4v4Zm-44,0v-4h4v4Zm44-44v-4h4v4Zm-44,0v-4h4v4Z" transform="translate(181 2519)" fill="#fff"/>
    </clipPath>
  </defs>
  <g id="8a6f99e785c5ef66bcb9ddec21850463-input_icon_twitter" transform="translate(-2769 -2123)">
    <g id="8a6f99e785c5ef66bcb9ddec21850463-&#x5e95;&#x5c42;" transform="translate(2769 2123)">
      <g id="8a6f99e785c5ef66bcb9ddec21850463-Mask_Group_1" data-name="Mask Group 1" transform="translate(0)" opacity="0" clip-path="url(#8a6f99e785c5ef66bcb9ddec21850463-clip-path)">
        <path id="8a6f99e785c5ef66bcb9ddec21850463-&#x5e95;&#x5c42;-2" data-name="&#x5e95;&#x5c42;" d="M2,1A1,1,0,0,0,1,2V46a1,1,0,0,0,1,1H46a1,1,0,0,0,1-1V2a1,1,0,0,0-1-1H2M2,0H46a2,2,0,0,1,2,2V46a2,2,0,0,1-2,2H2a2,2,0,0,1-2-2V2A2,2,0,0,1,2,0Z" transform="translate(0 0)" fill="#fff"/>
      </g>
    </g>
    <g id="8a6f99e785c5ef66bcb9ddec21850463-input_icon_twitter-2" data-name="input_icon_twitter" transform="translate(2771 2125)">
      <circle id="8a6f99e785c5ef66bcb9ddec21850463-Ellipse_1" data-name="Ellipse 1" cx="22" cy="22" r="22"/>
      <path id="8a6f99e785c5ef66bcb9ddec21850463-path1009" d="M484.006,356.79l10.516,14.06L483.94,382.282h2.382l9.264-10,7.486,10h8.1L500.06,367.43l9.85-10.64h-2.382L499,366.008,492.1,356.79Zm3.5,1.754h3.724l16.442,21.984H503.95Z" transform="translate(-475.558 -347.536)" fill="#fff"/>
    </g>
  </g>
</svg>
