<svg xmlns="http://www.w3.org/2000/svg" xmlns:xlink="http://www.w3.org/1999/xlink" width="48" height="48.001" viewBox="0 0 48 48.001">
  <defs>
    <clipPath id="42334f6578f0a193bbc410b4321f6e63-clip-path">
      <path id="42334f6578f0a193bbc410b4321f6e63-Union_151" data-name="Union 151" d="M-137-2471v-4h4v4Zm-44,0v-4h4v4Zm44-44v-4h4v4Zm-44,0v-4h4v4Z" transform="translate(181 2519)" fill="#fff"/>
    </clipPath>
  </defs>
  <g id="42334f6578f0a193bbc410b4321f6e63-input_icon_zsxm" transform="translate(-2397 -2123)">
    <g id="42334f6578f0a193bbc410b4321f6e63-&#x5e95;&#x5c42;" transform="translate(2397 2123)">
      <g id="42334f6578f0a193bbc410b4321f6e63-Mask_Group_1" data-name="Mask Group 1" transform="translate(0)" opacity="0" clip-path="url(#42334f6578f0a193bbc410b4321f6e63-clip-path)">
        <path id="42334f6578f0a193bbc410b4321f6e63-&#x5e95;&#x5c42;-2" data-name="&#x5e95;&#x5c42;" d="M2,1A1,1,0,0,0,1,2V46a1,1,0,0,0,1,1H46a1,1,0,0,0,1-1V2a1,1,0,0,0-1-1H2M2,0H46a2,2,0,0,1,2,2V46a2,2,0,0,1-2,2H2a2,2,0,0,1-2-2V2A2,2,0,0,1,2,0Z" transform="translate(0 0)" fill="#fff"/>
      </g>
    </g>
    <path id="42334f6578f0a193bbc410b4321f6e63-icon_dl_zsxm" d="M-10927.969-3139.318h-40a4,4,0,0,1-4-4l0-26.181a4,4,0,0,1,4-3.995h40a4,4,0,0,1,4,4v26.18a4.005,4.005,0,0,1-4,4Zm-29.248-27.293a5.683,5.683,0,0,0-5.711,5.646,5.561,5.561,0,0,0,2.292,4.531c-3.457,2.287-6.107,4.362-6.338,8.463a1.773,1.773,0,0,0,.47,1.309,1.308,1.308,0,0,0,.938.417h16.688a1.312,1.312,0,0,0,.94-.412,1.8,1.8,0,0,0,.476-1.309c-.239-4.111-2.893-6.184-6.339-8.465a5.606,5.606,0,0,0,2.295-4.53,5.686,5.686,0,0,0-5.7-5.65Zm16.5,12.364a2.251,2.251,0,0,0-2.247,2.251,2.245,2.245,0,0,0,2.247,2.247h10.5a2.25,2.25,0,0,0,2.25-2.247,2.25,2.25,0,0,0-2.25-2.251Zm0-9a2.249,2.249,0,0,0-2.25,2.247,2.251,2.251,0,0,0,2.25,2.253h10.5a2.254,2.254,0,0,0,2.25-2.254,2.249,2.249,0,0,0-2.25-2.247Z" transform="translate(13368.967 5303.495)" fill="#999"/>
  </g>
</svg>
