<svg id="af87cf14a75dde615c70a1eeee5f68fd-icon_sy_zc_tgzq" xmlns="http://www.w3.org/2000/svg" width="70" height="70" viewBox="0 0 70 70">
  <path id="af87cf14a75dde615c70a1eeee5f68fd-&#x8def;&#x5f84;_21929" data-name="&#x8def;&#x5f84; 21929" d="M64,0H6A6,6,0,0,0,0,6V64a6,6,0,0,0,6,6H64a6,6,0,0,0,6-6V6A6,6,0,0,0,64,0Z" fill="#fff" opacity="0"/>
  <path id="af87cf14a75dde615c70a1eeee5f68fd-&#x8054;&#x5408;_336" data-name="&#x8054;&#x5408; 336" d="M-5308-901a11.014,11.014,0,0,1-11-11v-40a11.013,11.013,0,0,1,11-11h18a3,3,0,0,1,3,3,3,3,0,0,1-3,3h-18a5.005,5.005,0,0,0-5,5v40a5.005,5.005,0,0,0,5,5h34a5.005,5.005,0,0,0,5-5v-13.5a3,3,0,0,1,3-3,3,3,0,0,1,3,3V-912a11.012,11.012,0,0,1-11,11Zm30.417-50.3v-9.411l16.448,16.482-16.448,16.471v-9.416s-16.322-1.811-25.85,11.775C-5303.433-925.4-5300.433-951.3-5277.583-951.3Z" transform="translate(5325 967.714)" fill="#1678ff"/>
</svg>
