<svg id="62af09b5219d300a533875f769cd73af-icon_sy_zc_xz" xmlns="http://www.w3.org/2000/svg" xmlns:xlink="http://www.w3.org/1999/xlink" width="33.429" height="33.428" viewBox="0 0 33.429 33.428">
  <defs>
    <clipPath id="62af09b5219d300a533875f769cd73af-clip-path">
      <circle id="62af09b5219d300a533875f769cd73af-Ellipse_7" data-name="Ellipse 7" cx="16.714" cy="16.714" r="16.714" fill="none"/>
    </clipPath>
  </defs>
  <g id="62af09b5219d300a533875f769cd73af-Mask_Group_190" data-name="Mask Group 190" clip-path="url(#62af09b5219d300a533875f769cd73af-clip-path)">
    <path id="62af09b5219d300a533875f769cd73af-comm_icon_xza" d="M2032.081,134.116l2.957,2.745a.551.551,0,0,0,.732,0l2.957-2.745,2.5-2.32a.448.448,0,0,0-.366-.764h-2.652v-6.664a.7.7,0,0,0-.7-.7h-4.21a.7.7,0,0,0-.7.7v6.664h-2.646a.448.448,0,0,0-.366.764Zm10.336,5.337h-14.033a1.052,1.052,0,1,0,0,2.1h14.033a1.052,1.052,0,1,0,0-2.1Z" transform="translate(-2018.686 -116.174)" fill="#111923" fill-rule="evenodd"/>
  </g>
</svg>
