<svg id="6ecd4d5a588d300aeef80d0dfb98c30e-icon_sy_zc_cjwt" xmlns="http://www.w3.org/2000/svg" xmlns:xlink="http://www.w3.org/1999/xlink" width="33.429" height="33.428" viewBox="0 0 33.429 33.428">
  <defs>
    <clipPath id="6ecd4d5a588d300aeef80d0dfb98c30e-clip-path">
      <circle id="6ecd4d5a588d300aeef80d0dfb98c30e-Ellipse_6" data-name="Ellipse 6" cx="16.714" cy="16.714" r="16.714" fill="none"/>
    </clipPath>
  </defs>
  <g id="6ecd4d5a588d300aeef80d0dfb98c30e-Mask_Group_188" data-name="Mask Group 188" clip-path="url(#6ecd4d5a588d300aeef80d0dfb98c30e-clip-path)">
    <path id="6ecd4d5a588d300aeef80d0dfb98c30e-Union_135" data-name="Union 135" d="M0,5.347a5.817,5.817,0,0,1,2.307-4.1A7.03,7.03,0,0,1,6.58,0a6.924,6.924,0,0,1,4.883,1.624A4.736,4.736,0,0,1,13,5.273a4.953,4.953,0,0,1-.745,2.649,10.96,10.96,0,0,1-2.234,2.429A6.973,6.973,0,0,0,8,12.7a6.782,6.782,0,0,0-.366,2.5H5.054v-.6A7.41,7.41,0,0,1,5.6,11.487,8.951,8.951,0,0,1,7.349,9.229a10.333,10.333,0,0,0,1.88-2.295,3.478,3.478,0,0,0,.4-1.66A2.574,2.574,0,0,0,8.7,3.162,3.21,3.21,0,0,0,6.6,2.5a3.079,3.079,0,0,0-2.49,1.074,4.3,4.3,0,0,0-.891,2.515Zm4.553,12.28H8.105V21H4.553Z" transform="translate(9.474 5.717)" fill="#111923" stroke="rgba(0,0,0,0)" stroke-miterlimit="10" stroke-width="1"/>
  </g>
</svg>
