<svg id="295e794deff402547b482ffb4a621e9d-icon_sy_zc_kf" xmlns="http://www.w3.org/2000/svg" xmlns:xlink="http://www.w3.org/1999/xlink" width="33.429" height="33.428" viewBox="0 0 33.429 33.428">
  <defs>
    <clipPath id="295e794deff402547b482ffb4a621e9d-clip-path">
      <circle id="295e794deff402547b482ffb4a621e9d-Ellipse_6" data-name="Ellipse 6" cx="16.714" cy="16.714" r="16.714" fill="none"/>
    </clipPath>
  </defs>
  <g id="295e794deff402547b482ffb4a621e9d-Mask_Group_189" data-name="Mask Group 189" clip-path="url(#295e794deff402547b482ffb4a621e9d-clip-path)">
    <path id="295e794deff402547b482ffb4a621e9d-icon_dt_1kf" d="M11.278,20.959A1.9,1.9,0,0,1,9.554,19.9H7.877a3.171,3.171,0,0,1-3.242-3.087V16.3H4.327a.953.953,0,0,1-.975-.928V8.294c0-.011.008-.019.013-.028A8.672,8.672,0,0,1,12.1,0a8.672,8.672,0,0,1,8.738,8.265.056.056,0,0,1,.013.029v7.074a.952.952,0,0,1-.975.928H16.691a.952.952,0,0,1-.974-.928V9.16a.952.952,0,0,1,.974-.928h1.8a6.4,6.4,0,0,0-12.78,0h1.8a.952.952,0,0,1,.975.928v6.208a.952.952,0,0,1-.975.928H6.2v.517a1.644,1.644,0,0,0,1.68,1.6H9.543a1.905,1.905,0,0,1,1.735-1.076h1.651a1.812,1.812,0,1,1,0,3.621Zm10.815-6.58v-4.23a.355.355,0,0,1,.42-.344,2.041,2.041,0,0,1,1.694,1.973v.971a2.041,2.041,0,0,1-1.694,1.973.351.351,0,0,1-.067.006A.356.356,0,0,1,22.093,14.379Zm-20.4.344A2.041,2.041,0,0,1,0,12.75v-.971A2.041,2.041,0,0,1,1.694,9.805a.355.355,0,0,1,.42.344v4.23a.353.353,0,0,1-.42.344Z" transform="translate(4.61 6.234)" fill="#111923"/>
  </g>
</svg>
