<svg xmlns="http://www.w3.org/2000/svg" width="28" height="20.977" viewBox="0 0 28 20.977">
  <path id="cfc03e4fad6862b26e9d9d073e330816-img_vip_dqicon" d="M8236.16,991.81l.939-.708,9.116-6.86a2.047,2.047,0,0,1,2.828.4c1.179,1.549-.778,3.117-.778,3.117l-2.313,1.893,14.334-.271a1.9,1.9,0,0,1,2.088,1.9,2.084,2.084,0,0,1-2.088,2.065l-6.7.421s1.14,2.337-.68,3.5c.721.172.47,3.347-1.544,3.708.271,1.412-.241,4.027-5.2,3.816-4.627-.21-10.976-.779-11.728-8.112A5.135,5.135,0,0,1,8236.16,991.81Z" transform="translate(-8234.374 -983.832)" fill="#fff"/>
</svg>
