<svg id="baba3f847b9bf9fa20e65f5bc80414b0-style_1_icon_list_aqtc" xmlns="http://www.w3.org/2000/svg" width="40" height="40" viewBox="0 0 40 40">
  <rect id="baba3f847b9bf9fa20e65f5bc80414b0-bg" width="40" height="40" fill="#fff" opacity="0"/>
  <path id="baba3f847b9bf9fa20e65f5bc80414b0-&#x8def;&#x5f84;_16890" data-name="&#x8def;&#x5f84; 16890" d="M-7375.666-2925.334a5.338,5.338,0,0,1-5.334-5.333v-24a5.338,5.338,0,0,1,5.334-5.332h16a5.339,5.339,0,0,1,5.334,5.332v1.334a1.666,1.666,0,0,1-1.667,1.666,1.666,1.666,0,0,1-1.666-1.666v-1.334a2,2,0,0,0-2-2h-16a2,2,0,0,0-2,2v24a2,2,0,0,0,2,2h16a2,2,0,0,0,2-2V-2932a1.666,1.666,0,0,1,1.666-1.667,1.667,1.667,0,0,1,1.667,1.667v1.333a5.339,5.339,0,0,1-5.334,5.333Zm21.861-11.677a2,2,0,0,1,0-2.828l.829-.829h-9.357a2,2,0,0,1-2-2,2,2,0,0,1,2-2h9.357l-.829-.829a2,2,0,0,1,0-2.828,2,2,0,0,1,2.828,0l4.243,4.242a2,2,0,0,1,.585,1.415,1.992,1.992,0,0,1-.585,1.414l-4.243,4.242a1.99,1.99,0,0,1-1.414.587A1.993,1.993,0,0,1-7353.8-2937.011Z" transform="translate(7383.667 2962.667)" fill="#1678ff"/>
</svg>
