<svg id="b08bb6f01f0863211d83ef064c720593-style_1_icon_top_grzl" xmlns="http://www.w3.org/2000/svg" width="40" height="40" viewBox="0 0 40 40">
  <rect id="b08bb6f01f0863211d83ef064c720593-comomn_a_icon___60_60" data-name="comomn / a icon _ 60*60" width="40" height="40" fill="#1777ff" opacity="0"/>
  <path id="b08bb6f01f0863211d83ef064c720593-&#x8def;&#x5f84;_16898" data-name="&#x8def;&#x5f84; 16898" d="M-86.526-188.357a7.53,7.53,0,0,1-2.059-1.153.82.82,0,0,1-.309-.555.808.808,0,0,1,.176-.6,1.621,1.621,0,0,0,.137-1.864,1.722,1.722,0,0,0-1.478-.83,1.745,1.745,0,0,0-.25.018.837.837,0,0,1-.123.009.852.852,0,0,1-.839-.7,7.083,7.083,0,0,1,0-2.312.841.841,0,0,1,.839-.7.837.837,0,0,1,.122.008,1.785,1.785,0,0,0,.24.016,1.752,1.752,0,0,0,.859-.224,1.663,1.663,0,0,0,.821-1.125,1.629,1.629,0,0,0-.334-1.342.82.82,0,0,1-.181-.6.819.819,0,0,1,.309-.557,7.656,7.656,0,0,1,2.049-1.156.883.883,0,0,1,.307-.056.855.855,0,0,1,.8.524,1.692,1.692,0,0,0,1.579,1.04h.006a1.7,1.7,0,0,0,1.586-1.049.848.848,0,0,1,.792-.522.872.872,0,0,1,.3.053,7.528,7.528,0,0,1,2.06,1.152.816.816,0,0,1,.311.555.808.808,0,0,1-.176.6,1.609,1.609,0,0,0-.136,1.864l0,.008a1.716,1.716,0,0,0,1.475.832,1.779,1.779,0,0,0,.252-.018.836.836,0,0,1,.123-.009.85.85,0,0,1,.839.7,7.079,7.079,0,0,1,0,2.311.82.82,0,0,1-.341.538.858.858,0,0,1-.5.16.943.943,0,0,1-.124-.008,1.744,1.744,0,0,0-.244-.017,1.711,1.711,0,0,0-1.475.835,1.615,1.615,0,0,0,.136,1.856.813.813,0,0,1,.179.6.823.823,0,0,1-.313.559,7.608,7.608,0,0,1-2.045,1.151.883.883,0,0,1-.307.055.853.853,0,0,1-.8-.523,1.7,1.7,0,0,0-1.584-1.042,1.7,1.7,0,0,0-1.586,1.044.838.838,0,0,1-.447.452.853.853,0,0,1-.347.073A.854.854,0,0,1-86.526-188.357Zm-.456-6.838a3.136,3.136,0,0,0,3.132,3.132,3.136,3.136,0,0,0,3.132-3.132,3.135,3.135,0,0,0-3.132-3.131A3.135,3.135,0,0,0-86.982-195.2Zm-15.572,5.725c-2.909-.847-4.447-2.062-4.447-3.517a8.2,8.2,0,0,1,4.22-7.5,14.968,14.968,0,0,1,4.579-1.687,27.6,27.6,0,0,1,5.608-.527c.877,0,1.74.037,2.565.11a9.562,9.562,0,0,0-3.742,7.617,9.579,9.579,0,0,0,2.656,6.638c-.55.018-1.1.026-1.627.026A36.786,36.786,0,0,1-102.553-189.47Zm5.18-17.233a7.154,7.154,0,0,1-2.11-5.093,7.155,7.155,0,0,1,2.11-5.093A7.154,7.154,0,0,1-92.28-219a7.155,7.155,0,0,1,5.093,2.11,7.155,7.155,0,0,1,2.11,5.093,7.154,7.154,0,0,1-2.11,5.093,7.155,7.155,0,0,1-5.093,2.11A7.154,7.154,0,0,1-97.374-206.7Z" transform="translate(111.667 223.651)" fill="#1777ff"/>
</svg>
