<svg id="b79b2a9ab02c6d088671345d2169b3f7-style_1_icon_list_tgzq" xmlns="http://www.w3.org/2000/svg" width="40" height="40" viewBox="0 0 40 40">
  <rect id="b79b2a9ab02c6d088671345d2169b3f7-bg" width="40" height="40" fill="#fff" opacity="0"/>
  <path id="b79b2a9ab02c6d088671345d2169b3f7-&#x8def;&#x5f84;_16891" data-name="&#x8def;&#x5f84; 16891" d="M-413.667-1043a5.289,5.289,0,0,1-5.333-5.231v-23.538a5.289,5.289,0,0,1,5.333-5.231h13.334a1.668,1.668,0,0,1,1.667,1.667,1.668,1.668,0,0,1-1.667,1.667v.015h-13.334a1.983,1.983,0,0,0-2,1.961v23.458a1.984,1.984,0,0,0,2,1.962h24a1.983,1.983,0,0,0,2-1.962v-10.1A1.667,1.667,0,0,1-386-1060a1.666,1.666,0,0,1,1.666,1.666v10.1a5.288,5.288,0,0,1-5.334,5.231Zm9.07-11.7a1.666,1.666,0,0,1-1.626-1.706,16.236,16.236,0,0,1,1.048-4.774,13.806,13.806,0,0,1,4.961-6.68,17.591,17.591,0,0,1,9.423-3.09l-2.055-2.055a1.668,1.668,0,0,1,0-2.357,1.667,1.667,0,0,1,2.357,0l5.185,5.185a1.667,1.667,0,0,1,0,2.357l-5.185,5.185a1.667,1.667,0,0,1-2.357,0,1.667,1.667,0,0,1,0-2.357l2.652-2.652c-8.089.345-10.882,4.807-11.838,7.571l-.012.033a13.14,13.14,0,0,0-.848,3.715,1.668,1.668,0,0,1-1.666,1.627Z" transform="translate(421 1081)" fill="#1678ff" stroke="rgba(0,0,0,0)" stroke-width="1"/>
</svg>
