<svg id="54205c265e589710c2470c9f2e84aea5-style_1_icon_top_kf" xmlns="http://www.w3.org/2000/svg" width="40" height="40" viewBox="0 0 40 40">
  <rect id="54205c265e589710c2470c9f2e84aea5-comomn_s_icon___60_60" data-name="comomn / s icon _ 60*60" width="40" height="40" fill="#1777ff" opacity="0"/>
  <path id="54205c265e589710c2470c9f2e84aea5-icon_dt_1kf" d="M16.151,30.015A2.721,2.721,0,0,1,13.682,28.5h-2.4a4.541,4.541,0,0,1-4.643-4.421v-.735H6.2a1.365,1.365,0,0,1-1.4-1.329V11.878c0-.016.011-.027.019-.04A12.419,12.419,0,0,1,17.328,0,12.419,12.419,0,0,1,29.842,11.836a.08.08,0,0,1,.019.042V22.009a1.363,1.363,0,0,1-1.4,1.329H23.9a1.363,1.363,0,0,1-1.395-1.329v-8.89A1.363,1.363,0,0,1,23.9,11.789h2.578a9.165,9.165,0,0,0-18.3,0h2.578a1.363,1.363,0,0,1,1.4,1.329v8.89a1.363,1.363,0,0,1-1.4,1.329H8.879v.74a2.354,2.354,0,0,0,2.406,2.291h2.382a2.728,2.728,0,0,1,2.485-1.541h2.364a2.595,2.595,0,1,1,0,5.186Zm15.488-9.423V14.534a.508.508,0,0,1,.6-.493,2.923,2.923,0,0,1,2.426,2.826v1.391a2.923,2.923,0,0,1-2.426,2.826.5.5,0,0,1-.1.009.51.51,0,0,1-.506-.5Zm-29.215.493A2.923,2.923,0,0,1,0,18.259V16.869a2.923,2.923,0,0,1,2.426-2.827.508.508,0,0,1,.6.493v6.058a.506.506,0,0,1-.6.493Z" transform="translate(2.667 4.992)" fill="#1777ff"/>
</svg>
