<svg id="ccdb1a1d132cc9a26564d14f007d922c-style_1_icon_mid_lxb" xmlns="http://www.w3.org/2000/svg" width="53" height="46.375" viewBox="0 0 53 46.375">
  <rect id="ccdb1a1d132cc9a26564d14f007d922c-comomn_lxb_icon___69_69" data-name="comomn / lxb icon _ 69*69" width="53" height="46.375" fill="#1777ff" opacity="0"/>
  <path id="ccdb1a1d132cc9a26564d14f007d922c-Subtraction_42" data-name="Subtraction 42" d="M-7413.606-2228.074h-4.231c-.819,0-1.036-.821-1.288-1.771l-.022-.083-.031-.115-.513-1.618a24.893,24.893,0,0,1-6.371.828,24.765,24.765,0,0,1-5.722-.663l-.278,1.456-.008.037c-.207.95-.421,1.933-1.285,1.933h-4.231c-.985,0-1.686-1.39-1.811-1.97-.044-.181-1.077-4.369-1.591-5.014a13.449,13.449,0,0,0-5.93-3.969,4.7,4.7,0,0,1-2.661-1.739,8.559,8.559,0,0,1-1.409-4.938c-.124-3.57.7-4.923.706-4.936a1.987,1.987,0,0,1,1.667-1.111c.736-.014,1.2-.681,2.219-2.146l.006-.009c.715-1.028,1.694-2.434,3.229-4.288a19.755,19.755,0,0,0-2.9-5.29h0a.007.007,0,0,1,.005-.007.694.694,0,0,1-.1-.354c0-.468.268-.9,2.218-.9a10.407,10.407,0,0,1,5.424,1.641,23.739,23.739,0,0,1,12.451-3.413,23.329,23.329,0,0,1,12.854,3.625,18.8,18.8,0,0,1,7.511,9.478c.593,1.664,1.325,2.7,1.965,2.779a4.235,4.235,0,0,0,.455.031.54.54,0,0,0,.248-.031,1.542,1.542,0,0,1,1.16.5,2.422,2.422,0,0,1,.535,1.861c-.1,1.207-.7,1.871-1.694,1.871h-.705c-.616.291-1.077,1.339-1.651,2.667-.856,1.967-2.026,4.657-4.453,6.518l-1.9,7.184C-7411.859-2229.159-7412.712-2228.074-7413.606-2228.074Zm-5.586-20.111a4.342,4.342,0,0,0-1.709.35,4.517,4.517,0,0,0-2.751,4.2,4.517,4.517,0,0,0,2.751,4.193,4.4,4.4,0,0,0,1.708.345,4.375,4.375,0,0,0,3.146-1.325,4.6,4.6,0,0,0,0-6.425,4.375,4.375,0,0,0-3.141-1.334Zm-12.547,1.929v2.271c0,1.46,2.9,2.65,6.464,2.65h.89a4.423,4.423,0,0,1-.482-2.281h-.407c-3.617,0-6.448-1.16-6.465-2.642Zm.024-3.312v2.271c0,1.461,2.894,2.65,6.451,2.65h.469a4.479,4.479,0,0,1,1.033-2.342,12.65,12.65,0,0,1-1.5.1h-.055a12.122,12.122,0,0,1-4.522-.779c-1.2-.5-1.868-1.179-1.875-1.9Zm0-3.188v2.271c0,1.466,2.894,2.66,6.451,2.66a11.988,11.988,0,0,0,2.379-.183,5.785,5.785,0,0,1,3.688-1.373,1.147,1.147,0,0,0,.42-.911v-2.415c-.042.69-.729,1.34-1.938,1.827a12.456,12.456,0,0,1-4.514.76,12.52,12.52,0,0,1-4.563-.777c-1.236-.5-1.916-1.158-1.923-1.862Zm-8.376-1.678a2.383,2.383,0,0,0-2.38,2.382,2.381,2.381,0,0,0,2.38,2.377,2.38,2.38,0,0,0,2.377-2.377,2.382,2.382,0,0,0-2.373-2.378Zm14.815-2c-3.551,0-6.439,1.189-6.439,2.65,0,.95,1.234,1.828,3.219,2.293a14.093,14.093,0,0,0,3.229.358,14.069,14.069,0,0,0,3.23-.358c1.987-.476,3.22-1.354,3.22-2.292-.006-1.459-2.9-2.652-6.456-2.652Z" transform="translate(7452.989 2270.15)" fill="#1777ff"/>
</svg>
