<svg id="abd3e1572dd95114d3429efe9df8d242-style_1_icon_list_dlsb" xmlns="http://www.w3.org/2000/svg" width="40" height="40" viewBox="0 0 40 40">
  <rect id="abd3e1572dd95114d3429efe9df8d242-bg" width="40" height="40" fill="#fff" opacity="0"/>
  <path id="abd3e1572dd95114d3429efe9df8d242-&#x8def;&#x5f84;_16906" data-name="&#x8def;&#x5f84; 16906" d="M-66.605,21.413A3.72,3.72,0,0,1-70.32,17.7V-.239a3.719,3.719,0,0,1,3.715-3.715h10.89A3.72,3.72,0,0,1-52-.239V17.7a3.72,3.72,0,0,1-3.716,3.716Zm-.64-21.651V17.7a.641.641,0,0,0,.64.64h10.89a.64.64,0,0,0,.641-.64V-.239a.641.641,0,0,0-.641-.64h-10.89A.641.641,0,0,0-67.246-.239Zm-3.965,21.493H-78.33a1.561,1.561,0,0,1-1.56-1.559,1.562,1.562,0,0,1,1.56-1.56h1.455l.617-2.932h-8A3.748,3.748,0,0,1-88,11.459V-7.257A3.748,3.748,0,0,1-84.257-11h25.578a3.748,3.748,0,0,1,3.743,3.743v1.871h-3.119V-7.257a.624.624,0,0,0-.624-.624H-84.257a.624.624,0,0,0-.624.624V11.459a.624.624,0,0,0,.624.624h12.335V15.2h-1.785l-.617,2.932H-71.9V19.5a2.555,2.555,0,0,0,.691,1.75h0Zm8.477-6.582a1.559,1.559,0,0,1,1.559-1.559,1.56,1.56,0,0,1,1.56,1.559,1.56,1.56,0,0,1-1.56,1.56A1.56,1.56,0,0,1-62.734,14.673Z" transform="translate(90 14.794)" fill="#1678ff"/>
</svg>
