<svg id="4aa38dd76f7d5e367c53881f211af21f-style_1_icon_list_zhye" xmlns="http://www.w3.org/2000/svg" width="40" height="40" viewBox="0 0 40 40">
  <rect id="4aa38dd76f7d5e367c53881f211af21f-bg" width="40" height="40" fill="#fff" opacity="0"/>
  <path id="4aa38dd76f7d5e367c53881f211af21f-&#x8def;&#x5f84;_16934" data-name="&#x8def;&#x5f84; 16934" d="M-1186.158,7208.472l-5.187-5.2a16.939,16.939,0,0,1-10.649,3.746A17.007,17.007,0,0,1-1219,7190.007,17.008,17.008,0,0,1-1201.994,7173a17.008,17.008,0,0,1,17.007,17.008,16.937,16.937,0,0,1-3.744,10.646l5.191,5.209a1.849,1.849,0,0,1-.005,2.615,1.841,1.841,0,0,1-1.3.539A1.84,1.84,0,0,1-1186.158,7208.472ZM-1211.4,7180.6a13.222,13.222,0,0,0-3.9,9.412,13.223,13.223,0,0,0,3.9,9.411,13.219,13.219,0,0,0,9.41,3.9,13.224,13.224,0,0,0,9.412-3.9,13.223,13.223,0,0,0,3.9-9.411,13.222,13.222,0,0,0-3.9-9.412,13.222,13.222,0,0,0-9.412-3.9A13.217,13.217,0,0,0-1211.4,7180.6Zm4.243,15.323c-1.387-.555-2.176-1.294-2.222-2.086h0v-1.6a6.509,6.509,0,0,0,1.725,1,15.451,15.451,0,0,0,5.67.972,15.453,15.453,0,0,0,5.669-.972,6.525,6.525,0,0,0,1.723-1v1.464c0,.02,0,.042,0,.061s0,.042,0,.062v.014c-.048.792-.839,1.533-2.226,2.086a14.4,14.4,0,0,1-5.166.86A14.406,14.406,0,0,1-1207.161,7195.918Zm0-3.748c-1.387-.555-2.176-1.294-2.222-2.085h0v-1.6a6.5,6.5,0,0,0,1.725,1,15.462,15.462,0,0,0,5.67.972,15.463,15.463,0,0,0,5.669-.972,6.512,6.512,0,0,0,1.723-1v1.466c0,.02,0,.042,0,.062s0,.041,0,.061v.015c-.048.791-.839,1.532-2.226,2.085a14.4,14.4,0,0,1-5.166.86A14.406,14.406,0,0,1-1207.161,7192.17Zm-2.226-5.915c0-1.669,3.312-3.021,7.395-3.021s7.392,1.352,7.392,3.021-3.31,3.022-7.392,3.022S-1209.387,7187.925-1209.387,7186.255Z" transform="translate(1220 -7171.008)" fill="#1678ff"/>
</svg>
