<svg id="aecb47732951da1746597bf6e2247bd6-style_1_icon_list_grbb" xmlns="http://www.w3.org/2000/svg" width="40" height="40" viewBox="0 0 40 40">
  <g id="aecb47732951da1746597bf6e2247bd6-_1" data-name="1">
    <rect id="aecb47732951da1746597bf6e2247bd6-bg" width="40" height="40" fill="#fff" opacity="0"/>
    <path id="aecb47732951da1746597bf6e2247bd6-&#x8def;&#x5f84;_16897" data-name="&#x8def;&#x5f84; 16897" d="M-140.793-894.332-143-896.539a9.265,9.265,0,0,1-5.533,1.814,9.272,9.272,0,0,1-6.6-2.734,9.272,9.272,0,0,1-2.734-6.6,9.273,9.273,0,0,1,2.734-6.6,9.272,9.272,0,0,1,6.6-2.734,9.274,9.274,0,0,1,6.6,2.734,9.273,9.273,0,0,1,2.734,6.6,9.263,9.263,0,0,1-1.8,5.507l2.21,2.21a1.422,1.422,0,0,1,.407,1.391,1.42,1.42,0,0,1-1.025,1.025,1.419,1.419,0,0,1-.353.045A1.419,1.419,0,0,1-140.793-894.332Zm-14.071-9.726a6.338,6.338,0,0,0,6.331,6.331,6.338,6.338,0,0,0,6.331-6.331,6.338,6.338,0,0,0-6.331-6.331A6.338,6.338,0,0,0-154.864-904.058Zm-13.759,9.431A4.4,4.4,0,0,1-173-899v-23.619A4.4,4.4,0,0,1-168.623-927H-149.1a4.4,4.4,0,0,1,4.377,4.377v7.016a11.317,11.317,0,0,0-3.127-.485v-6.6a1.245,1.245,0,0,0-.365-.885,1.24,1.24,0,0,0-.886-.364h-19.524a1.241,1.241,0,0,0-.885.364,1.243,1.243,0,0,0-.365.885v23.624a1.245,1.245,0,0,0,.365.885,1.249,1.249,0,0,0,.885.364h9.8a14.05,14.05,0,0,0,2.571,3.193Zm9.311-16.122h-6.1a1.616,1.616,0,0,1-1.6-1.6,1.579,1.579,0,0,1,.461-1.135,1.573,1.573,0,0,1,1.136-.46h6.1a1.6,1.6,0,0,1,1.6,1.6,1.6,1.6,0,0,1-1.6,1.6Zm5.2-5.275h-11.4a1.616,1.616,0,0,1-1.6-1.6,1.573,1.573,0,0,1,.461-1.137,1.57,1.57,0,0,1,1.136-.46h11.4a1.617,1.617,0,0,1,1.6,1.6,1.572,1.572,0,0,1-.461,1.136,1.569,1.569,0,0,1-1.112.46Z" transform="translate(175.666 930.525)" fill="#1678ff"/>
  </g>
</svg>
