<svg id="35f7374b65b2babd1f061801e9d429bb-style_1_icon_mid_tx" xmlns="http://www.w3.org/2000/svg" width="53" height="46.375" viewBox="0 0 53 46.375">
  <rect id="35f7374b65b2babd1f061801e9d429bb-comomn_tx_icon___69_69" data-name="comomn / tx icon _ 69*69" width="53" height="46.375" fill="#1777ff" opacity="0"/>
  <path id="35f7374b65b2babd1f061801e9d429bb-icon_" data-name="icon " d="M39.1,35.775H4.632A4.623,4.623,0,0,1,0,31.187v-5.9a7.9,7.9,0,0,0,5.117-7.376A7.9,7.9,0,0,0,0,10.531V4.586A4.623,4.623,0,0,1,4.633,0H39.1A4.625,4.625,0,0,1,42.37,1.347a4.543,4.543,0,0,1,1.355,3.239v5.877a7.876,7.876,0,0,0,0,14.89v5.836A4.618,4.618,0,0,1,39.1,35.774ZM11.925,10.96a1.99,1.99,0,0,0-1.987,1.987V24.872a1.99,1.99,0,0,0,1.987,1.988H31.8a1.99,1.99,0,0,0,1.987-1.988V12.947A1.99,1.99,0,0,0,31.8,10.96ZM26.84,9.037a1.988,1.988,0,0,1,1.489.673h2.693L30.463,7.47a1.984,1.984,0,0,0-2.409-1.448L13.265,9.71H23.7l2.691-.621A1.974,1.974,0,0,1,26.84,9.037Zm2.12,15.551H14.765a2.843,2.843,0,0,0-2.84-2.839V16.071a2.844,2.844,0,0,0,2.84-2.839h14.2a2.843,2.843,0,0,0,2.84,2.839v5.679a2.845,2.845,0,0,0-2.841,2.838Zm-7.1-8.328a2.65,2.65,0,1,0,2.65,2.65A2.653,2.653,0,0,0,21.863,16.26Z" transform="translate(4.638 4.969)" fill="#1777ff"/>
</svg>
