<svg id="ba441ea57f22bfaacc466788192cde6d-style_1_icon_list_zhmx" xmlns="http://www.w3.org/2000/svg" width="40" height="40" viewBox="0 0 40 40">
  <rect id="ba441ea57f22bfaacc466788192cde6d-comomn_icon___60_60" data-name="comomn/icon _ 60*60" width="40" height="40" fill="#fff" opacity="0"/>
  <g id="ba441ea57f22bfaacc466788192cde6d-icon_grzx_zhmx" transform="translate(2.666 3.525)">
    <path id="ba441ea57f22bfaacc466788192cde6d-&#x8def;&#x5f84;_16900" data-name="&#x8def;&#x5f84; 16900" d="M-4094.821-365.073a9.77,9.77,0,0,1-5.87-10.92,9.771,9.771,0,0,1,9.567-7.886,9.767,9.767,0,0,1,6.91,2.843,9.77,9.77,0,0,1,1.248,12.335,9.769,9.769,0,0,1-8.141,4.364A9.751,9.751,0,0,1-4094.821-365.073Zm-1.244-14.013a6.983,6.983,0,0,0-.925,8.815,6.983,6.983,0,0,0,8.465,2.624,6.984,6.984,0,0,0,4.222-7.793,6.984,6.984,0,0,0-6.822-5.658h-.034A6.986,6.986,0,0,0-4096.064-379.085Zm-15.558,14.172a4.405,4.405,0,0,1-4.378-4.377V-392.91a4.4,4.4,0,0,1,4.378-4.377h19.524a4.4,4.4,0,0,1,4.377,4.377v7.017a11.33,11.33,0,0,0-3.127-.486v-6.6a1.243,1.243,0,0,0-.365-.885,1.235,1.235,0,0,0-.885-.364h-19.524a1.239,1.239,0,0,0-.886.364,1.245,1.245,0,0,0-.364.885v23.624a1.247,1.247,0,0,0,.364.885,1.248,1.248,0,0,0,.886.364h9.8a14.055,14.055,0,0,0,2.571,3.193Zm20.479-4.505s0,0-1.43-.013a5.854,5.854,0,0,0,1.368-2.351,4.982,4.982,0,0,1-1.539.843,2.259,2.259,0,0,1-1.98-.577,2.257,2.257,0,0,1-.687-1.945c.061-1.959,2.253-2.8,4.279-5.3,1.994,2.529,4.225,3.4,4.26,5.35a2.253,2.253,0,0,1-.717,1.93,2.252,2.252,0,0,1-1.985.543,4.566,4.566,0,0,1-1.476-.853,5.915,5.915,0,0,0,1.337,2.383Zm-11.168-11.617h-6.1a1.616,1.616,0,0,1-1.6-1.6,1.579,1.579,0,0,1,.46-1.135,1.577,1.577,0,0,1,1.137-.46h6.1a1.6,1.6,0,0,1,1.6,1.6,1.6,1.6,0,0,1-1.6,1.6Zm5.205-5.274h-11.4a1.617,1.617,0,0,1-1.6-1.6,1.576,1.576,0,0,1,.461-1.137,1.569,1.569,0,0,1,1.136-.46h11.4a1.617,1.617,0,0,1,1.6,1.6,1.576,1.576,0,0,1-.461,1.136,1.572,1.572,0,0,1-1.113.46Z" transform="translate(4116 397.287)" fill="#ffaa09"/>
  </g>
</svg>
