<svg id="d94defed0afadd528ce23b5e305f5002-style_1_icon_list_yjfk" xmlns="http://www.w3.org/2000/svg" width="40" height="40" viewBox="0 0 40 40">
  <rect id="d94defed0afadd528ce23b5e305f5002-bg" width="40" height="40" fill="#fff" opacity="0"/>
  <path id="d94defed0afadd528ce23b5e305f5002-&#x8def;&#x5f84;_16892" data-name="&#x8def;&#x5f84; 16892" d="M-7457.668-2774a5.289,5.289,0,0,1-5.333-5.231v-23.538a5.288,5.288,0,0,1,5.333-5.23h13.335a1.668,1.668,0,0,1,1.667,1.667,1.668,1.668,0,0,1-1.667,1.667v.015h-13.335a1.984,1.984,0,0,0-2,1.962v23.458a1.984,1.984,0,0,0,2,1.962h24a1.983,1.983,0,0,0,2-1.962v-13.435a1.668,1.668,0,0,1,1.667-1.667,1.668,1.668,0,0,1,1.667,1.667v13.435a5.289,5.289,0,0,1-5.334,5.231Zm6.447-10.494a1.627,1.627,0,0,1-.384-1.592l1.911-6.342a1.606,1.606,0,0,1,.4-.672l14.771-15.491a4.769,4.769,0,0,1,6.777,0,4.866,4.866,0,0,1,0,6.833l-14.754,15.476a1.6,1.6,0,0,1-.7.412l-6.446,1.8a1.645,1.645,0,0,1-.43.057A1.6,1.6,0,0,1-7451.221-2784.491Zm4.468-6.61-.949,3.15,3.244-.905,1.027-1.079-2.458-2.074Zm14.489-15.206-.309.31-11.047,11.6,2.459,2.075,11.157-11.712a1.623,1.623,0,0,0,0-2.276,1.589,1.589,0,0,0-1.132-.472A1.577,1.577,0,0,0-7432.264-2806.308Z" transform="translate(7465 2811.997)" fill="#1678ff" stroke="rgba(0,0,0,0)" stroke-width="1"/>
</svg>
