<svg id="7ade66a350d1cc07dc68acc2f015e93d-style_1_icon_list_grzl" xmlns="http://www.w3.org/2000/svg" width="40" height="40" viewBox="0 0 40 40">
  <rect id="7ade66a350d1cc07dc68acc2f015e93d-bg" width="40" height="40" fill="#fff" opacity="0"/>
  <g id="7ade66a350d1cc07dc68acc2f015e93d-icon_personal_info" data-name="icon_personal info" transform="translate(1.169 1.32)">
    <path id="7ade66a350d1cc07dc68acc2f015e93d-&#x8def;&#x5f84;_16893" data-name="&#x8def;&#x5f84; 16893" d="M-236.922-967.117h-17.693a1.646,1.646,0,0,1-1.644-1.644v-2.621a12.083,12.083,0,0,1,.953-4.721,12.131,12.131,0,0,1,2.6-3.854,12.115,12.115,0,0,1,3.855-2.6,12.728,12.728,0,0,1,4.722-.953h7.208a1.646,1.646,0,0,1,1.643,1.645,1.645,1.645,0,0,1-1.643,1.644h-7.208a8.85,8.85,0,0,0-8.84,8.84v.977h16.048a1.645,1.645,0,0,1,1.643,1.644A1.645,1.645,0,0,1-236.922-967.117Zm3.964-.263a1.5,1.5,0,0,1-1.066-.443,1.514,1.514,0,0,1-.442-1.136l.173-3.956a1.511,1.511,0,0,1,.442-1.006l8.884-8.885a1.508,1.508,0,0,1,1.072-.443,1.505,1.505,0,0,1,1.071.443l3.785,3.785a1.519,1.519,0,0,1,0,2.143l-8.885,8.883a1.521,1.521,0,0,1-1.006.442l-3.956.172Zm9.062-12.211h0l-7.4,7.4-.073,1.718,1.718-.076,7.394-7.394-1.642-1.643Zm-13.677-5.873a9.518,9.518,0,0,1-9.508-9.506,9.518,9.518,0,0,1,9.508-9.508,9.518,9.518,0,0,1,9.507,9.508A9.517,9.517,0,0,1-237.574-985.464Zm0-15.726a6.227,6.227,0,0,0-6.22,6.22,6.226,6.226,0,0,0,6.22,6.218,6.225,6.225,0,0,0,6.218-6.218A6.226,6.226,0,0,0-237.574-1001.19Z" transform="translate(256.259 1004.478)" fill="#1678ff"/>
  </g>
</svg>
