<svg id="b30b19a6a7681bef69aaa9cca6945e71-style_1_icon_list_tzjl" xmlns="http://www.w3.org/2000/svg" width="40" height="40" viewBox="0 0 40 40">
  <rect id="b30b19a6a7681bef69aaa9cca6945e71-comomn_icon___60_60" data-name="comomn/icon _ 60*60" width="40" height="40" fill="#fff" opacity="0"/>
  <g id="b30b19a6a7681bef69aaa9cca6945e71-icon_grzx_tzjl" transform="translate(2.667 5.063)">
    <path id="b30b19a6a7681bef69aaa9cca6945e71-&#x8def;&#x5f84;_16895" data-name="&#x8def;&#x5f84; 16895" d="M842.159-924.035a9.77,9.77,0,0,1-5.869-10.92,9.77,9.77,0,0,1,9.567-7.886,9.774,9.774,0,0,1,6.91,2.843,9.772,9.772,0,0,1,1.249,12.335,9.771,9.771,0,0,1-8.141,4.364A9.76,9.76,0,0,1,842.159-924.035Zm-1.243-14.013a6.981,6.981,0,0,0-.925,8.814,6.984,6.984,0,0,0,8.466,2.624,6.985,6.985,0,0,0,4.222-7.793,6.985,6.985,0,0,0-6.822-5.658h-.035A6.983,6.983,0,0,0,840.916-938.048Zm-2.872,14.15H822.815A1.816,1.816,0,0,1,821-925.711a1.816,1.816,0,0,1,1.815-1.814h12.3a12.316,12.316,0,0,0,2.932,3.626h0Zm7.813-4.367s0,.005-1.431-.013a5.849,5.849,0,0,0,1.368-2.351,4.984,4.984,0,0,1-1.539.844,2.259,2.259,0,0,1-1.981-.578,2.256,2.256,0,0,1-.686-1.944c.061-1.96,2.253-2.8,4.279-5.3,1.994,2.528,4.225,3.4,4.26,5.351a2.255,2.255,0,0,1-.716,1.93,2.256,2.256,0,0,1-1.985.542,4.565,4.565,0,0,1-1.477-.854,5.916,5.916,0,0,0,1.337,2.384Zm-11.91-2.43H822.815A1.816,1.816,0,0,1,821-932.508a1.817,1.817,0,0,1,1.815-1.814h10.892c-.026.328-.04.664-.04,1a12.392,12.392,0,0,0,.281,2.629h0Zm.4-6.667H822.815A1.816,1.816,0,0,1,821-939.175a1.817,1.817,0,0,1,1.815-1.815h13.523a12.287,12.287,0,0,0-1.995,3.628h0Zm5.526-6.667h0Zm0,0H822.815A1.816,1.816,0,0,1,821-945.841a1.817,1.817,0,0,1,1.815-1.815h24.1a1.784,1.784,0,0,1,1.253.519,1.782,1.782,0,0,1,.518,1.3,1.847,1.847,0,0,1-.06.465,12.419,12.419,0,0,0-2.629-.281A12.328,12.328,0,0,0,839.869-944.027Zm-17.054-6.938A1.817,1.817,0,0,1,821-952.78a1.816,1.816,0,0,1,1.815-1.814h24.1a1.776,1.776,0,0,1,1.25.519,1.782,1.782,0,0,1,.518,1.3,1.816,1.816,0,0,1-1.814,1.814Z" transform="translate(-821 954.594)" fill="#04be02"/>
  </g>
</svg>
