<svg id="4c4939793c3d255ef0eba1eef7907a6b-style_1_icon_list_aqzx" xmlns="http://www.w3.org/2000/svg" width="40" height="40" viewBox="0 0 40 40">
  <rect id="4c4939793c3d255ef0eba1eef7907a6b-bg" width="40" height="40" fill="#fff" opacity="0"/>
  <path id="4c4939793c3d255ef0eba1eef7907a6b-icon_wd_sec" d="M14.135,37.067c-15.395-5.378-17-17.957-16.822-27.23.017-.835.038-1.874.038-2.813A1.587,1.587,0,0,1-1.07,5.431c5.337,0,11.24-1.663,14.621-4.977a1.564,1.564,0,0,1,2.206,0c3.379,3.311,9.233,4.915,14.572,4.915a1.588,1.588,0,0,1,1.58,1.594c0,.862.017,1.753.037,2.812h0c.175,9.273-1.378,21.911-16.775,27.29a1.556,1.556,0,0,1-1.036,0ZM.5,8.576C.5,8.857.485,9.335.474,9.9c.152,9.387,1.475,19.263,14.18,23.972,12.7-4.709,13.923-14.224,14.131-24.034-.01-.545-.017-.937-.023-1.321-4.954-.261-10.667-1.455-14.108-4.4C11.211,7.061,5.449,8.316.5,8.576Zm11.96,14.666L8.949,19.7a1.6,1.6,0,0,1,0-2.252,1.572,1.572,0,0,1,2.234,0l2.394,2.411,5.9-5.948a1.563,1.563,0,0,1,1.117-.466h0a1.559,1.559,0,0,1,1.117.467,1.6,1.6,0,0,1,0,2.252l-7.017,7.074a1.575,1.575,0,0,1-2.237,0Z" transform="translate(5.37 1.422)" fill="#1678ff"/>
</svg>
