<svg id="02061b7835ae24c692a6580731943614-style_1_icon_list_cjwt" xmlns="http://www.w3.org/2000/svg" width="40" height="40" viewBox="0 0 40 40">
  <rect id="02061b7835ae24c692a6580731943614-bg" width="40" height="40" fill="#fff" opacity="0"/>
  <path id="02061b7835ae24c692a6580731943614-icon_wd_about" d="M2312.484,1427.833a18.333,18.333,0,1,1,18.333,18.334A18.353,18.353,0,0,1,2312.484,1427.833Zm3.334,0a15,15,0,1,0,15-15A15.015,15.015,0,0,0,2315.819,1427.833Zm12.635,9.393a2.265,2.265,0,1,1,2.265,2.266A2.266,2.266,0,0,1,2328.453,1437.226Zm.292-5.424s-.057-1.793,0-2.578c.133-1.043,1.419-1.367,2.041-1.49.005,0,2.867-.227,3.479-2.324a3.013,3.013,0,0,0-2.14-3.7,3.2,3.2,0,0,0-3.6,1.77,2.1,2.1,0,0,1-2.5,1.258,1.805,1.805,0,0,1-1.147-2.231,7,7,0,0,1,3.172-3.822,6.792,6.792,0,0,1,9.854,7.7c-.709,2.633-2.87,3.79-5.39,4.229v1.186a1.885,1.885,0,0,1-3.771,0Z" transform="translate(-2310.817 -1407.833)" fill="#1678ff"/>
</svg>
