<svg id="b04bf3ec746bb3d76dc0b1c2a2e1580a-style_1_icon_mid_cz" xmlns="http://www.w3.org/2000/svg" width="53" height="46.375" viewBox="0 0 53 46.375">
  <rect id="b04bf3ec746bb3d76dc0b1c2a2e1580a-comomn_cz_icon___69_69" data-name="comomn / cz icon _ 69*69" width="53" height="46.375" fill="#1777ff" opacity="0"/>
  <path id="b04bf3ec746bb3d76dc0b1c2a2e1580a-cz" d="M1030.33,659.489a6.633,6.633,0,0,1-6.625-6.625V630.339a6.633,6.633,0,0,1,6.625-6.625H1060.8a6.632,6.632,0,0,1,6.625,6.625v2.65H1050.58a5.962,5.962,0,1,0,0,11.925h16.849v7.95a6.632,6.632,0,0,1-6.625,6.625Zm.757-7.409v2.69a1.305,1.305,0,0,0,2.61,0v-2.69a1.305,1.305,0,0,0-2.61,0Zm0-7.8v2.69a1.305,1.305,0,1,0,2.61,0v-2.69a1.305,1.305,0,0,0-2.61,0Zm0-7.8v2.69a1.305,1.305,0,1,0,2.61,0v-2.69a1.305,1.305,0,1,0-2.61,0Zm0-7.8v2.69a1.305,1.305,0,0,0,2.61,0v-2.69a1.305,1.305,0,0,0-2.61,0Zm17.461,10.263a2.981,2.981,0,1,1,2.981,2.981A2.981,2.981,0,0,1,1048.548,638.951Z" transform="translate(-1019.399 -618.745)" fill="#1777ff" stroke="rgba(0,0,0,0)" stroke-width="1"/>
</svg>
