<svg id="bc84babaec8252cac29ce3c664bf2341-icon_message_tz" xmlns="http://www.w3.org/2000/svg" width="44" height="44" viewBox="0 0 44 44">
  <rect id="bc84babaec8252cac29ce3c664bf2341-&#x77e9;&#x5f62;_3298" data-name="&#x77e9;&#x5f62; 3298" width="44" height="44" fill="#fff" opacity="0"/>
  <g id="bc84babaec8252cac29ce3c664bf2341-&#x901a;&#x77e5;" transform="translate(-5671 -820)">
    <path id="bc84babaec8252cac29ce3c664bf2341-&#x51cf;&#x53bb;_2" data-name="&#x51cf;&#x53bb; 2" d="M1237.134-767.886a1.078,1.078,0,0,1-.866-.448,1.044,1.044,0,0,1-.146-.946l1.479-4.572a16.034,16.034,0,0,1-4.6-11.113,16.087,16.087,0,0,1,5.565-12.045A20.034,20.034,0,0,1,1252-802a20.035,20.035,0,0,1,13.436,4.989A16.087,16.087,0,0,1,1271-784.966a16.089,16.089,0,0,1-5.565,12.046A20.035,20.035,0,0,1,1252-767.93a20.639,20.639,0,0,1-9.855-2.468l-4.511,2.385A1.064,1.064,0,0,1,1237.134-767.886Zm24.039-19.7a2.623,2.623,0,0,0-2.62,2.621,2.623,2.623,0,0,0,2.62,2.621,2.624,2.624,0,0,0,2.621-2.621A2.624,2.624,0,0,0,1261.173-787.586Zm-9.173,0a2.624,2.624,0,0,0-2.621,2.621,2.624,2.624,0,0,0,2.621,2.621,2.624,2.624,0,0,0,2.621-2.621A2.624,2.624,0,0,0,1252-787.586Zm-9.172,0a2.624,2.624,0,0,0-2.621,2.621,2.624,2.624,0,0,0,2.621,2.621,2.624,2.624,0,0,0,2.621-2.621A2.624,2.624,0,0,0,1242.828-787.586Z" transform="translate(4441 1627)" fill="#1678ff"/>
  </g>
</svg>
