<svg id="0f9ce8745bbae5c29f77962ff66d1505-icon_message_pmd" xmlns="http://www.w3.org/2000/svg" width="44" height="44" viewBox="0 0 44 44">
  <rect id="0f9ce8745bbae5c29f77962ff66d1505-&#x77e9;&#x5f62;_3298" data-name="&#x77e9;&#x5f62; 3298" width="44" height="44" fill="#fff" opacity="0"/>
  <g id="0f9ce8745bbae5c29f77962ff66d1505-&#x8dd1;&#x9a6c;&#x706f;" transform="translate(-5676 -825)">
    <path id="0f9ce8745bbae5c29f77962ff66d1505-&#x8054;&#x5408;_158" data-name="&#x8054;&#x5408; 158" d="M6930.908,60.89l-9.583-7.875H6913.6a1.754,1.754,0,0,1-1.6-1.729V38.094a1.552,1.552,0,0,1,1.552-1.552l7.772-.007,9.394-7.992a1.525,1.525,0,0,1,2.67,1.142l.032,30.133a1.7,1.7,0,0,1-1.5,1.507A1.543,1.543,0,0,1,6930.908,60.89Zm11.065-3.7a1.554,1.554,0,0,1,.5-2.138,9.155,9.155,0,0,0,3.271-4.619,15.705,15.705,0,0,0,1.033-5.683c-.2-5.027-1.771-8.608-4.654-10.643a1.552,1.552,0,0,1,1.79-2.536,13.206,13.206,0,0,1,4.788,6.532,22.026,22.026,0,0,1,1.177,6.522,18.668,18.668,0,0,1-1.228,6.9,12.286,12.286,0,0,1-4.533,6.164,1.551,1.551,0,0,1-2.138-.5ZM6937.3,52.18a1.553,1.553,0,0,1,.136-2.191c1.812-1.6,2.616-2.594,2.686-5.363.066-2.567-.76-4.163-2.765-5.339a1.552,1.552,0,1,1,1.57-2.677,8.43,8.43,0,0,1,3.227,3.185,9.331,9.331,0,0,1,1.071,4.912,9.6,9.6,0,0,1-1.085,4.556,11.6,11.6,0,0,1-2.647,3.054,1.554,1.554,0,0,1-2.193-.136Z" transform="translate(-1233 802)" fill="#1678ff"/>
  </g>
</svg>
